# xmcd
#
# Track frame offsets: 
#        150
#        22655
#        40270
#        60370
#        72032
#        90172
#        106117
#        128142
#        144275
#        157372
#        170097
#        196610
#        203595
#
# Disc length: 2797 seconds
#
# Revision: 0
# Processed by: cddbd v1.5.2PL0 Copyright (c) Steve Scherf et al.
# Submitted via: ExactAudioCopyFreeDBPlugin 1.0
#
DISCID=9b0aeb0d
DTITLE=Sweet Honey in the Rock - We all ... Everyone of us
DYEAR=1900
DGENRE=Gospel
TTITLE0=Study war no more
TTITLE1=What a friend we have in Jesus
TTITLE2=Sweet bird of youth
TTITLE3=How long?
TTITLE4=More than a paycheck
TTITLE5=Azanian freedom song
TTITLE6=Listen to the rhythm
TTITLE7=Testimony
TTITLE8=Oh Lord hold my hand
TTITLE9=Battle for my life
TTITLE10=Ella' song
TTITLE11=I'm gonna stand
TTITLE12=We all ... everyone of us
EXTD=
EXTT0=
EXTT1=
EXTT2=
EXTT3=
EXTT4=
EXTT5=
EXTT6=
EXTT7=
EXTT8=
EXTT9=
EXTT10=
EXTT11=
EXTT12=
PLAYORDER=
